<svg xmlns="http://www.w3.org/2000/svg" xmlns:xlink="http://www.w3.org/1999/xlink" viewBox="0,0,256,256" width="24px" height="24px" fill-rule="nonzero"><g fill="#b22222" fill-rule="nonzero" stroke="none" stroke-width="1" stroke-linecap="butt" stroke-linejoin="miter" stroke-miterlimit="10" stroke-dasharray="" stroke-dashoffset="0" font-family="none" font-weight="none" font-size="none" text-anchor="none" style="mix-blend-mode: normal"><g transform="scale(10.66667,10.66667)"><path d="M12,2c-5.523,0 -10,4.477 -10,10c0,5.523 4.477,10 10,10c5.523,0 10,-4.477 10,-10c0,-5.523 -4.477,-10 -10,-10zM10.25,16.321v0c-0.414,-0.414 -0.414,-1.086 0,-1.5l2.821,-2.821l-2.821,-2.821c-0.414,-0.414 -0.414,-1.086 0,-1.5v0c0.414,-0.414 1.086,-0.414 1.5,0l3.614,3.614c0.391,0.391 0.391,1.024 0,1.414l-3.614,3.614c-0.414,0.414 -1.086,0.414 -1.5,0z"></path></g></g></svg>