<svg xmlns="http://www.w3.org/2000/svg" xmlns:xlink="http://www.w3.org/1999/xlink" viewBox="0,0,256,256" width="30px" height="30px" fill-rule="nonzero"><g fill="#ffffff" fill-rule="nonzero" stroke="none" stroke-width="1" stroke-linecap="butt" stroke-linejoin="miter" stroke-miterlimit="10" stroke-dasharray="" stroke-dashoffset="0" font-family="none" font-weight="none" font-size="none" text-anchor="none" style="mix-blend-mode: normal"><g transform="scale(8.53333,8.53333)"><path d="M25.983,13.342c0.005,-0.114 0.017,-0.226 0.017,-0.342c0,-4.418 -3.582,-8 -8,-8c-3.11,0 -5.8,1.779 -7.123,4.371c-0.581,-0.235 -1.212,-0.371 -1.877,-0.371c-2.53,0 -4.599,1.885 -4.932,4.324c-2.365,0.805 -4.068,3.039 -4.068,5.676c0,3.314 2.686,6 6,6h18c3.314,0 6,-2.686 6,-6c0,-2.618 -1.679,-4.838 -4.017,-5.658zM11.293,16.293l3,-3c0.195,-0.195 0.451,-0.293 0.707,-0.293c0.256,0 0.512,0.098 0.707,0.293l3,3c0.391,0.391 0.391,1.023 0,1.414c-0.391,0.391 -1.023,0.391 -1.414,0l-1.293,-1.293v12.586c0,0.552 -0.447,1 -1,1c-0.553,0 -1,-0.448 -1,-1v-12.586l-1.293,1.293c-0.391,0.391 -1.023,0.391 -1.414,0c-0.391,-0.391 -0.391,-1.023 0,-1.414z"></path></g></g></svg>